<svg xmlns="http://www.w3.org/2000/svg" viewBox="0 0 1200 400"><defs><linearGradient id="bg" x1="0" y1="0" x2="1" y2="1"><stop stop-color="#102a43"/><stop offset="1" stop-color="#071b2d"/></linearGradient></defs><rect width="1200" height="400" rx="34" fill="url(#bg)"/><path d="M0 135c160-65 280 52 430-18s285 50 430 0 245 15 340-35v318H0z" fill="#0b2237"/><path d="M0 255c180-68 300 30 460-20s270 50 410 10 220 10 330-22v177H0z" fill="#091d30"/><text x="72" y="165" fill="#edf4f5" font-family="Inter,Segoe UI,Arial,sans-serif" font-size="61" font-weight="700">Sistema de Guardias</text><text x="74" y="214" fill="#9fb3c2" font-family="Inter,Segoe UI,Arial,sans-serif" font-size="24" letter-spacing="2">turnos · planificación · control</text><rect x="74" y="247" width="150" height="5" rx="3" fill="#3bd3df"/><rect x="244" y="247" width="64" height="5" rx="3" fill="#436579"/><g transform="translate(825 72)"><rect x="40" y="80" width="210" height="160" rx="20" fill="#edf4f5"/><rect x="40" y="80" width="210" height="35" rx="20" fill="#c7d9df"/><g fill="#3bd3df"><rect x="72" y="136" width="34" height="30" rx="7"/><rect x="118" y="136" width="34" height="30" rx="7"/><rect x="164" y="136" width="34" height="30" rx="7"/><rect x="210" y="136" width="20" height="30" rx="7"/><rect x="72" y="180" width="34" height="30" rx="7"/><rect x="118" y="180" width="34" height="30" rx="7"/></g><path d="M180 242c0-34 27-61 61-61s61 27 61 61v20H180z" fill="#173a53"/><path d="M198 246h86c-6 17-23 29-43 29s-37-12-43-29z" fill="#3bd3df"/><circle cx="284" cy="92" r="31" fill="#d94343"/><path d="M284 72v20l15 10" fill="none" stroke="#edf4f5" stroke-width="8" stroke-linecap="round"/></g></svg>